<svg width="50" height="50" viewBox="0 0 50 50" fill="none" xmlns="http://www.w3.org/2000/svg">
<path fill-rule="evenodd" clip-rule="evenodd" d="M25 47.6744C37.5227 47.6744 47.6744 37.5227 47.6744 25C47.6744 12.4773 37.5227 2.32558 25 2.32558C12.4773 2.32558 2.32558 12.4773 2.32558 25C2.32558 37.5227 12.4773 47.6744 25 47.6744ZM25 50C38.8071 50 50 38.8071 50 25C50 11.1929 38.8071 0 25 0C11.1929 0 0 11.1929 0 25C0 38.8071 11.1929 50 25 50Z" fill="#4120A9"/>
<path fill-rule="evenodd" clip-rule="evenodd" d="M25 15.6977C25.6422 15.6977 26.1628 16.2183 26.1628 16.8605L26.1628 33.1396C26.1628 33.7817 25.6422 34.3023 25 34.3023C24.3578 34.3023 23.8372 33.7817 23.8372 33.1396L23.8372 16.8605C23.8372 16.2183 24.3578 15.6977 25 15.6977Z" fill="#4120A9"/>
<path fill-rule="evenodd" clip-rule="evenodd" d="M34.3023 25C34.3023 25.6422 33.7817 26.1628 33.1395 26.1628L16.8604 26.1628C16.2183 26.1628 15.6977 25.6422 15.6977 25C15.6977 24.3578 16.2183 23.8372 16.8604 23.8372L33.1395 23.8372C33.7817 23.8372 34.3023 24.3578 34.3023 25Z" fill="#4120A9"/>
</svg>
