<svg width="200" height="105" viewBox="0 0 200 105" fill="none" xmlns="http://www.w3.org/2000/svg">
<path d="M145.673 42.576C144.602 43.6469 145.731 44.8625 147.786 44.8625C149.436 44.8625 155.601 45.644 156.035 45.8755C156.498 46.165 156.324 46.6281 155.195 48.3068C153.054 51.4616 152.214 53.1982 152.301 54.1823C152.388 55.0506 152.475 55.1375 153.401 55.2243C154.356 55.2822 154.472 55.1953 155.774 53.1982C160.318 46.1071 160.434 44.8914 156.816 43.2706C155.137 42.5181 154.645 42.4602 150.507 42.3444C147.091 42.2286 145.933 42.2865 145.673 42.576Z" fill="#4120A9"/>
<path d="M74.9349 45.8177C71.4616 47.2938 68.5383 49.6672 63.7916 54.9928C62.1418 56.8162 54.7612 65.4414 52.2721 68.4515C48.7988 72.6194 45.5861 75.6874 43.3864 76.7873C39.9421 78.5818 37.7134 78.2055 34.9927 75.3401C30.5065 70.6802 28.191 64.3126 28.1621 56.5268C28.1621 54.877 26.9464 54.1534 25.8755 55.1954C25.4703 55.6295 25.4124 56.1795 25.5571 59.4501C25.8466 67.0043 28.22 72.7641 33.0825 77.7713C37.6845 82.5181 43.8784 81.6498 49.9276 75.4269C52.793 72.5036 58.4949 66.0492 61.2156 62.6628C62.6339 60.8973 63.9363 59.3343 64.11 59.1606C64.2547 58.987 64.8625 58.2634 65.4124 57.5687C67.3517 55.1375 71.0564 51.6353 73.1693 50.275C75.6874 48.6252 76.382 48.3357 77.9161 48.3357C80.521 48.3357 82.0839 49.725 88.3647 57.5687C94.0955 64.7467 95.2243 66.0781 98.0608 68.9725C103.936 74.9349 109.088 77.453 113.98 76.7004C118.755 75.9479 120.087 74.9928 130.246 64.9783C134.79 60.521 139.421 56.1216 140.521 55.2243C142.518 53.6324 147.612 50.3618 148.104 50.3618C148.249 50.3618 148.973 49.9855 149.725 49.4935C150.854 48.7699 151.085 48.4805 151.085 47.7569C151.085 45.9334 149.465 46.136 145.123 48.4805C140.781 50.8249 139.132 52.1852 131.114 60.0868C120.521 70.5065 119.016 71.8379 116.237 73.1114C112.301 74.9059 107.67 73.5745 102.779 69.1751C99.8553 66.5702 94.848 60.9841 90.5933 55.5716C84.3994 47.699 81.7655 45.4703 78.3502 45.2388C76.932 45.152 76.2373 45.2677 74.9349 45.8177Z" fill="#4120A9"/>
<mask id="path-3-inside-1_48_19" fill="white">
<path d="M153.401 34.1534H153.98L154.563 23.4443L155.137 10.7091C152.65 10.9075 153.401 14.0521 153.401 15.9189C153.401 19.9672 153.496 24.0283 153.397 28.0752C153.346 30.1323 152.802 32.1271 153.401 34.1534ZM147.033 35.0217C147.243 32.9479 146.206 30.6266 145.593 28.6541C144.455 24.9907 143.379 21.3107 142.212 17.6556C141.91 16.7084 141.319 12.4575 139.874 12.7124C138.417 12.9693 140.495 17.4323 140.762 18.2344C142.052 22.1025 143.339 25.9701 144.703 29.8119C145.339 31.6014 145.651 33.6422 147.033 35.0217ZM160.058 35.3111C161.793 34.3265 162.414 31.5896 163.126 29.8119C165.049 25.0094 169.198 18.7845 169.32 13.6035C167.268 14.2437 166.849 17.0184 166.136 18.8133C164.095 23.9477 160.876 29.8512 160.058 35.3111ZM126.194 19.6816C127.72 24.2818 132.709 28.6388 135.684 32.4168C137.031 34.1268 138.373 36.3832 140.376 37.3372C138.909 32.3505 133.582 27.3502 130.532 23.1548C129.48 21.7075 128.24 19.0108 126.194 19.6816ZM166.136 38.7844C168.121 38.0793 169.442 35.9618 170.816 34.4428C173.374 31.6162 176.01 28.8396 178.608 26.0492C179.929 24.6298 181.965 23.2681 181.476 21.1288C179.339 22.1254 177.982 24.306 176.474 26.0492C173.243 29.7838 167.929 34.156 166.136 38.7844ZM135.456 42.547C132.03 38.5108 125.948 35.5664 121.563 32.6107C120.976 32.215 117.318 29.3323 116.786 30.5696C116.245 31.8284 119.904 33.4628 120.695 33.9554C125.362 36.8622 130.287 40.6402 135.456 42.547ZM171.346 43.7048C173.21 43.4139 174.605 42.235 176.266 41.4208L186.686 36.2981C187.474 35.914 191.399 34.6874 190.687 33.3771C189.951 32.0208 186.624 34.5612 185.818 35.0214C181.426 37.5299 174.639 39.837 171.346 43.7048ZM12.1563 37.0477V37.3372L14.1823 36.7583V41.0998H14.4718C14.4644 40.2776 13.8478 38.4362 14.2507 37.7615C14.7831 36.87 15.7717 38.292 15.895 38.7858C16.187 39.9548 15.3006 40.7629 14.4718 41.3893V41.6787C16.6532 40.7925 16.8453 38.8897 15.6295 37.0477C16.8123 38.0095 17.0449 39.0362 17.0767 40.521C18.5917 36.8764 14.6267 36.3994 12.1563 37.0477Z"/>
</mask>
<path d="M153.401 34.1534H153.98L154.563 23.4443L155.137 10.7091C152.65 10.9075 153.401 14.0521 153.401 15.9189C153.401 19.9672 153.496 24.0283 153.397 28.0752C153.346 30.1323 152.802 32.1271 153.401 34.1534ZM147.033 35.0217C147.243 32.9479 146.206 30.6266 145.593 28.6541C144.455 24.9907 143.379 21.3107 142.212 17.6556C141.91 16.7084 141.319 12.4575 139.874 12.7124C138.417 12.9693 140.495 17.4323 140.762 18.2344C142.052 22.1025 143.339 25.9701 144.703 29.8119C145.339 31.6014 145.651 33.6422 147.033 35.0217ZM160.058 35.3111C161.793 34.3265 162.414 31.5896 163.126 29.8119C165.049 25.0094 169.198 18.7845 169.32 13.6035C167.268 14.2437 166.849 17.0184 166.136 18.8133C164.095 23.9477 160.876 29.8512 160.058 35.3111ZM126.194 19.6816C127.72 24.2818 132.709 28.6388 135.684 32.4168C137.031 34.1268 138.373 36.3832 140.376 37.3372C138.909 32.3505 133.582 27.3502 130.532 23.1548C129.48 21.7075 128.24 19.0108 126.194 19.6816ZM166.136 38.7844C168.121 38.0793 169.442 35.9618 170.816 34.4428C173.374 31.6162 176.01 28.8396 178.608 26.0492C179.929 24.6298 181.965 23.2681 181.476 21.1288C179.339 22.1254 177.982 24.306 176.474 26.0492C173.243 29.7838 167.929 34.156 166.136 38.7844ZM135.456 42.547C132.03 38.5108 125.948 35.5664 121.563 32.6107C120.976 32.215 117.318 29.3323 116.786 30.5696C116.245 31.8284 119.904 33.4628 120.695 33.9554C125.362 36.8622 130.287 40.6402 135.456 42.547ZM171.346 43.7048C173.21 43.4139 174.605 42.235 176.266 41.4208L186.686 36.2981C187.474 35.914 191.399 34.6874 190.687 33.3771C189.951 32.0208 186.624 34.5612 185.818 35.0214C181.426 37.5299 174.639 39.837 171.346 43.7048ZM12.1563 37.0477V37.3372L14.1823 36.7583V41.0998H14.4718C14.4644 40.2776 13.8478 38.4362 14.2507 37.7615C14.7831 36.87 15.7717 38.292 15.895 38.7858C16.187 39.9548 15.3006 40.7629 14.4718 41.3893V41.6787C16.6532 40.7925 16.8453 38.8897 15.6295 37.0477C16.8123 38.0095 17.0449 39.0362 17.0767 40.521C18.5917 36.8764 14.6267 36.3994 12.1563 37.0477Z" fill="#E8DEEF" stroke="black" stroke-width="2" mask="url(#path-3-inside-1_48_19)"/>
<mask id="path-4-inside-2_48_19" fill="white">
<path d="M170.478 52.6773C171.541 54.011 174.096 54.1754 175.687 54.5659C179.225 55.4348 182.853 55.9074 186.397 56.767C188.544 57.2877 191.167 58.2229 193.343 57.5977V57.0188L186.975 55.5705L170.478 52.6773Z"/>
</mask>
<path d="M170.478 52.6773C171.541 54.011 174.096 54.1754 175.687 54.5659C179.225 55.4348 182.853 55.9074 186.397 56.767C188.544 57.2877 191.167 58.2229 193.343 57.5977V57.0188L186.975 55.5705L170.478 52.6773Z" fill="#E8DEEF" stroke="black" stroke-width="2" mask="url(#path-4-inside-2_48_19)"/>
<mask id="path-5-inside-3_48_19" fill="white">
<path d="M162.759 44.2836L163.049 44.5731L162.759 44.2836ZM171.732 48.3357V48.6252C179.227 48.4703 187.233 47.103 194.597 45.7308C194.197 43.4263 190.733 44.8078 189.098 45.0804C183.408 46.0289 177.207 46.4816 171.732 48.3357ZM17.945 44.6694L18.1379 44.7661L17.945 44.6694ZM19.1992 44.5731L19.4887 44.8625L19.1992 44.5731ZM21.8041 44.5731L22.0936 44.8625L21.8041 44.5731ZM22.9619 44.5731L23.2513 44.8625L22.9619 44.5731ZM29.3295 44.5731L29.6189 44.8625L29.3295 44.5731ZM39.4597 44.5731V44.8625H40.6174L39.4597 44.5731Z"/>
</mask>
<path d="M162.759 44.2836L163.049 44.5731L162.759 44.2836ZM171.732 48.3357V48.6252C179.227 48.4703 187.233 47.103 194.597 45.7308C194.197 43.4263 190.733 44.8078 189.098 45.0804C183.408 46.0289 177.207 46.4816 171.732 48.3357ZM17.945 44.6694L18.1379 44.7661L17.945 44.6694ZM19.1992 44.5731L19.4887 44.8625L19.1992 44.5731ZM21.8041 44.5731L22.0936 44.8625L21.8041 44.5731ZM22.9619 44.5731L23.2513 44.8625L22.9619 44.5731ZM29.3295 44.5731L29.6189 44.8625L29.3295 44.5731ZM39.4597 44.5731V44.8625H40.6174L39.4597 44.5731Z" fill="#E8DEEF" stroke="black" stroke-width="2" mask="url(#path-5-inside-3_48_19)"/>
<mask id="path-6-inside-4_48_19" fill="white">
<path d="M14.6648 36.7583L14.8577 36.855L14.6648 36.7583Z"/>
</mask>
<path d="M14.6648 36.7583L14.8577 36.855L14.6648 36.7583Z" fill="#A9A8DB" stroke="black" stroke-width="2" mask="url(#path-6-inside-4_48_19)"/>
<mask id="path-7-inside-5_48_19" fill="white">
<path d="M32.4168 37.2408V37.5302C33.2673 37.3939 34.198 37.0312 35.009 37.4856C36.7525 38.4628 36.6318 40.7149 34.7323 41.2929C35.987 42.5485 37.712 38.5007 35.3111 37.2408V36.9513C39.5919 38.9971 35.024 42.0836 35.0217 45.0555C35.6559 43.5623 37.2035 41.9204 37.5386 40.4234C38.3407 36.8425 34.9302 36.4492 32.4168 37.2408Z"/>
</mask>
<path d="M32.4168 37.2408V37.5302C33.2673 37.3939 34.198 37.0312 35.009 37.4856C36.7525 38.4628 36.6318 40.7149 34.7323 41.2929C35.987 42.5485 37.712 38.5007 35.3111 37.2408V36.9513C39.5919 38.9971 35.024 42.0836 35.0217 45.0555C35.6559 43.5623 37.2035 41.9204 37.5386 40.4234C38.3407 36.8425 34.9302 36.4492 32.4168 37.2408Z" fill="#E8DEEF" stroke="black" stroke-width="2" mask="url(#path-7-inside-5_48_19)"/>
<mask id="path-8-inside-6_48_19" fill="white">
<path d="M34.9253 36.7583L35.1181 36.855L34.9253 36.7583ZM12.1563 37.5302L12.7352 47.6605C14.9706 47.2955 15.0011 44.5314 14.4718 42.7401C16.6882 41.7644 18.4382 38.7525 15.6295 37.2408C16.6513 39.2741 16.5148 40.6333 14.4718 41.8718L14.1823 36.9514L12.1563 37.5302ZM15.2436 37.0477L15.4365 37.1444L15.2436 37.0477ZM32.4168 37.5302L32.9956 47.9499C35.4414 46.9349 34.3638 45.035 35.1962 43.09C36.0064 41.198 39.4955 38.1551 35.3111 36.9514V37.2408C37.1936 38.7331 36.8845 40.8191 34.7323 41.8718C34.5401 40.3592 33.598 38.4367 34.7323 37.2408L32.4168 37.5302Z"/>
</mask>
<path d="M34.9253 36.7583L35.1181 36.855L34.9253 36.7583ZM12.1563 37.5302L12.7352 47.6605C14.9706 47.2955 15.0011 44.5314 14.4718 42.7401C16.6882 41.7644 18.4382 38.7525 15.6295 37.2408C16.6513 39.2741 16.5148 40.6333 14.4718 41.8718L14.1823 36.9514L12.1563 37.5302ZM15.2436 37.0477L15.4365 37.1444L15.2436 37.0477ZM32.4168 37.5302L32.9956 47.9499C35.4414 46.9349 34.3638 45.035 35.1962 43.09C36.0064 41.198 39.4955 38.1551 35.3111 36.9514V37.2408C37.1936 38.7331 36.8845 40.8191 34.7323 41.8718C34.5401 40.3592 33.598 38.4367 34.7323 37.2408L32.4168 37.5302Z" fill="#A9A8DB" stroke="black" stroke-width="2" mask="url(#path-8-inside-6_48_19)"/>
<mask id="path-9-inside-7_48_19" fill="white">
<path d="M34.1534 37.2408L34.4428 41.0034H34.7323L34.1534 37.2408Z"/>
</mask>
<path d="M34.1534 37.2408L34.4428 41.0034H34.7323L34.1534 37.2408Z" fill="#E8DEEF" stroke="black" stroke-width="2" mask="url(#path-9-inside-7_48_19)"/>
<mask id="path-10-inside-8_48_19" fill="white">
<path d="M17.6556 38.1091V42.4507H17.945L17.6556 38.1091Z"/>
</mask>
<path d="M17.6556 38.1091V42.4507H17.945L17.6556 38.1091Z" fill="#E8DEEF" stroke="black" stroke-width="2" mask="url(#path-10-inside-8_48_19)"/>
<mask id="path-11-inside-9_48_19" fill="white">
<path d="M17.945 38.1091C17.945 40.486 17.4123 44.2431 18.4091 46.4365C19.3885 48.5916 21.5369 45.7902 21.9971 44.7661H22.2865C22.4533 45.6472 23.5415 48.6706 24.2206 46.1962C24.7639 44.2165 24.5983 40.6339 24.0232 38.688L20.2605 45.6345C20.2605 43.0666 20.9285 39.0058 17.945 38.1091Z"/>
</mask>
<path d="M17.945 38.1091C17.945 40.486 17.4123 44.2431 18.4091 46.4365C19.3885 48.5916 21.5369 45.7902 21.9971 44.7661H22.2865C22.4533 45.6472 23.5415 48.6706 24.2206 46.1962C24.7639 44.2165 24.5983 40.6339 24.0232 38.688L20.2605 45.6345C20.2605 43.0666 20.9285 39.0058 17.945 38.1091Z" fill="#A9A8DB" stroke="black" stroke-width="2" mask="url(#path-11-inside-9_48_19)"/>
<mask id="path-12-inside-10_48_19" fill="white">
<path d="M18.7169 38.2055L18.9098 38.3022L18.7169 38.2055ZM25.4703 38.1091L25.1809 42.1612H25.4703L26.0492 38.1091H25.4703Z"/>
</mask>
<path d="M18.7169 38.2055L18.9098 38.3022L18.7169 38.2055ZM25.4703 38.1091L25.1809 42.1612H25.4703L26.0492 38.1091H25.4703Z" fill="#E8DEEF" stroke="black" stroke-width="2" mask="url(#path-12-inside-10_48_19)"/>
<mask id="path-13-inside-11_48_19" fill="white">
<path d="M27.207 48.8182L27.7858 43.6084H28.0753L31.2591 47.9499C31.1389 46.2961 30.1548 45.29 29.3628 43.8978C28.561 42.4885 29.6337 41.1681 28.9342 39.883C28.5185 39.1192 26.5827 37.6304 25.8967 38.7855C24.751 40.7146 25.2972 47.6469 27.207 48.8182Z"/>
</mask>
<path d="M27.207 48.8182L27.7858 43.6084H28.0753L31.2591 47.9499C31.1389 46.2961 30.1548 45.29 29.3628 43.8978C28.561 42.4885 29.6337 41.1681 28.9342 39.883C28.5185 39.1192 26.5827 37.6304 25.8967 38.7855C24.751 40.7146 25.2972 47.6469 27.207 48.8182Z" fill="#A9A8DB" stroke="black" stroke-width="2" mask="url(#path-13-inside-11_48_19)"/>
<mask id="path-14-inside-12_48_19" fill="white">
<path d="M26.9175 38.1091L27.2069 38.3986L26.9175 38.1091ZM12.1563 38.3986V42.4507H12.4457L12.1563 38.3986ZM19.2957 38.4949L19.4886 38.5916L19.2957 38.4949ZM23.6372 38.4949L23.8302 38.5916L23.6372 38.4949ZM27.2069 38.3986L27.4964 38.688L27.2069 38.3986ZM32.4168 38.3986V41.8718H32.7062L32.4168 38.3986ZM19.6816 38.688L19.971 38.9774L19.6816 38.688ZM23.0584 38.7844L23.2513 38.8811L23.0584 38.7844ZM24.0231 38.688L24.3126 38.9774L24.0231 38.688ZM27.4964 38.688V38.9774H28.3647L27.4964 38.688ZM22.576 38.9774L22.8654 39.2669L22.576 38.9774ZM24.3126 38.9774V46.5028H24.602L24.3126 38.9774ZM28.3647 38.9774L28.6541 39.2669L28.3647 38.9774ZM19.971 39.2669V41.5824H20.2605L19.971 39.2669ZM27.4964 39.2669V40.714H27.7858L28.3647 39.8457L27.4964 41.5824C29.0087 41.2767 28.6141 39.8837 27.4964 39.2669ZM28.6541 39.2669L28.9435 39.5563L28.6541 39.2669ZM51.8089 39.2669V39.5563C56.0466 40.4122 52.2063 41.9054 51.7328 43.4084C51.0338 45.6261 54.0422 45.1016 54.9927 44.4767C53.644 47.0747 51.0205 47.9317 49.7829 44.7661H49.4935C50.512 49.0373 55.0301 47.0608 55.5716 43.6084C53.826 44.4006 53.0089 45.3265 51.8089 43.319C54.8298 42.4342 55.4414 39.6417 51.8089 39.2669ZM22.2865 39.5563V41.8718H22.576L22.2865 39.5563ZM28.9435 39.5563L29.233 39.8457L28.9435 39.5563ZM51.2301 39.5563C49.8758 40.9769 49.2457 42.5224 49.204 44.4767H49.4935L51.2301 39.5563Z"/>
</mask>
<path d="M26.9175 38.1091L27.2069 38.3986L26.9175 38.1091ZM12.1563 38.3986V42.4507H12.4457L12.1563 38.3986ZM19.2957 38.4949L19.4886 38.5916L19.2957 38.4949ZM23.6372 38.4949L23.8302 38.5916L23.6372 38.4949ZM27.2069 38.3986L27.4964 38.688L27.2069 38.3986ZM32.4168 38.3986V41.8718H32.7062L32.4168 38.3986ZM19.6816 38.688L19.971 38.9774L19.6816 38.688ZM23.0584 38.7844L23.2513 38.8811L23.0584 38.7844ZM24.0231 38.688L24.3126 38.9774L24.0231 38.688ZM27.4964 38.688V38.9774H28.3647L27.4964 38.688ZM22.576 38.9774L22.8654 39.2669L22.576 38.9774ZM24.3126 38.9774V46.5028H24.602L24.3126 38.9774ZM28.3647 38.9774L28.6541 39.2669L28.3647 38.9774ZM19.971 39.2669V41.5824H20.2605L19.971 39.2669ZM27.4964 39.2669V40.714H27.7858L28.3647 39.8457L27.4964 41.5824C29.0087 41.2767 28.6141 39.8837 27.4964 39.2669ZM28.6541 39.2669L28.9435 39.5563L28.6541 39.2669ZM51.8089 39.2669V39.5563C56.0466 40.4122 52.2063 41.9054 51.7328 43.4084C51.0338 45.6261 54.0422 45.1016 54.9927 44.4767C53.644 47.0747 51.0205 47.9317 49.7829 44.7661H49.4935C50.512 49.0373 55.0301 47.0608 55.5716 43.6084C53.826 44.4006 53.0089 45.3265 51.8089 43.319C54.8298 42.4342 55.4414 39.6417 51.8089 39.2669ZM22.2865 39.5563V41.8718H22.576L22.2865 39.5563ZM28.9435 39.5563L29.233 39.8457L28.9435 39.5563ZM51.2301 39.5563C49.8758 40.9769 49.2457 42.5224 49.204 44.4767H49.4935L51.2301 39.5563Z" fill="#E8DEEF" stroke="black" stroke-width="2" mask="url(#path-14-inside-12_48_19)"/>
<mask id="path-15-inside-13_48_19" fill="white">
<path d="M54.9928 44.4767C54.1494 44.8929 51.086 45.4972 51.8976 43.4084C52.1685 42.712 56.4883 39.7768 52.3887 39.6654C47.4191 39.5299 49.7798 50.4926 54.0585 46.1716C54.5557 45.6694 54.7719 45.1256 54.9928 44.4767Z"/>
</mask>
<path d="M54.9928 44.4767C54.1494 44.8929 51.086 45.4972 51.8976 43.4084C52.1685 42.712 56.4883 39.7768 52.3887 39.6654C47.4191 39.5299 49.7798 50.4926 54.0585 46.1716C54.5557 45.6694 54.7719 45.1256 54.9928 44.4767Z" fill="#A9A8DB" stroke="black" stroke-width="2" mask="url(#path-15-inside-13_48_19)"/>
<mask id="path-16-inside-14_48_19" fill="white">
<path d="M43.7048 45.0555C44.7621 46.9088 48.0434 47.4373 47.6781 44.481C47.4573 42.6955 45.275 42.6547 45.4414 40.714L46.8886 41.5823C46.3082 40.5482 44.145 39.3105 43.8284 41.3241C43.6544 42.4292 47.101 46.0434 43.7048 45.0555Z"/>
</mask>
<path d="M43.7048 45.0555C44.7621 46.9088 48.0434 47.4373 47.6781 44.481C47.4573 42.6955 45.275 42.6547 45.4414 40.714L46.8886 41.5823C46.3082 40.5482 44.145 39.3105 43.8284 41.3241C43.6544 42.4292 47.101 46.0434 43.7048 45.0555Z" fill="#A9A8DB" stroke="black" stroke-width="2" mask="url(#path-16-inside-14_48_19)"/>
<mask id="path-17-inside-15_48_19" fill="white">
<path d="M159.962 40.8104L160.154 40.9071L159.962 40.8104ZM16.7873 41.0035L17.0767 41.2929L16.7873 41.0035ZM39.9421 41.0035V41.2929H41.0999L39.9421 41.0035ZM43.4153 41.0035V42.1612H43.7048L43.4153 41.0035Z"/>
</mask>
<path d="M159.962 40.8104L160.154 40.9071L159.962 40.8104ZM16.7873 41.0035L17.0767 41.2929L16.7873 41.0035ZM39.9421 41.0035V41.2929H41.0999L39.9421 41.0035ZM43.4153 41.0035V42.1612H43.7048L43.4153 41.0035Z" fill="#E8DEEF" stroke="black" stroke-width="2" mask="url(#path-17-inside-15_48_19)"/>
<mask id="path-18-inside-16_48_19" fill="white">
<path d="M160.926 41.0035L161.216 41.2929L160.926 41.0035ZM16.4978 41.2929L16.7873 41.5823L16.4978 41.2929ZM38.2055 43.0295H38.4949L39.6527 41.5823L38.2055 43.0295Z"/>
</mask>
<path d="M160.926 41.0035L161.216 41.2929L160.926 41.0035ZM16.4978 41.2929L16.7873 41.5823L16.4978 41.2929ZM38.2055 43.0295H38.4949L39.6527 41.5823L38.2055 43.0295Z" fill="#E8DEEF" stroke="black" stroke-width="2" mask="url(#path-18-inside-16_48_19)"/>
<mask id="path-19-inside-17_48_19" fill="white">
<path d="M39.6831 41.5091C36.9989 42.5942 38.4715 48.0793 41.3233 46.9025C43.3716 46.0573 42.6298 40.3178 39.6831 41.5091Z"/>
</mask>
<path d="M39.6831 41.5091C36.9989 42.5942 38.4715 48.0793 41.3233 46.9025C43.3716 46.0573 42.6298 40.3178 39.6831 41.5091Z" fill="#A9A8DB" stroke="black" stroke-width="2" mask="url(#path-19-inside-17_48_19)"/>
<mask id="path-20-inside-18_48_19" fill="white">
<path d="M41.3893 41.2929L41.6787 41.5823L41.3893 41.2929Z"/>
</mask>
<path d="M41.3893 41.2929L41.6787 41.5823L41.3893 41.2929Z" fill="#E8DEEF" stroke="black" stroke-width="2" mask="url(#path-20-inside-18_48_19)"/>
<mask id="path-21-inside-19_48_19" fill="white">
<path d="M161.795 41.2929L162.084 41.5823L161.795 41.2929ZM16.2084 41.5823L16.4978 41.8718L16.2084 41.5823ZM28.9436 41.5823L29.233 41.8718L28.9436 41.5823ZM41.6787 41.5823L41.9682 41.8718L41.6787 41.5823Z"/>
</mask>
<path d="M161.795 41.2929L162.084 41.5823L161.795 41.2929ZM16.2084 41.5823L16.4978 41.8718L16.2084 41.5823ZM28.9436 41.5823L29.233 41.8718L28.9436 41.5823ZM41.6787 41.5823L41.9682 41.8718L41.6787 41.5823Z" fill="#E8DEEF" stroke="black" stroke-width="2" mask="url(#path-21-inside-19_48_19)"/>
<mask id="path-22-inside-20_48_19" fill="white">
<path d="M162.373 41.5823L162.663 41.8718L162.373 41.5823ZM15.9189 41.8718L16.2084 42.1612L15.9189 41.8718ZM21.9971 41.8718V42.7401H22.2865L21.9971 41.8718ZM28.6541 41.8718L28.9435 42.1612L28.6541 41.8718ZM41.9681 41.8718L42.547 43.6084H42.8365L41.9681 41.8718Z"/>
</mask>
<path d="M162.373 41.5823L162.663 41.8718L162.373 41.5823ZM15.9189 41.8718L16.2084 42.1612L15.9189 41.8718ZM21.9971 41.8718V42.7401H22.2865L21.9971 41.8718ZM28.6541 41.8718L28.9435 42.1612L28.6541 41.8718ZM41.9681 41.8718L42.547 43.6084H42.8365L41.9681 41.8718Z" fill="#E8DEEF" stroke="black" stroke-width="2" mask="url(#path-22-inside-20_48_19)"/>
<mask id="path-23-inside-21_48_19" fill="white">
<path d="M162.952 41.8718L163.242 42.1612L162.952 41.8718ZM15.3401 42.1612L15.6295 42.4506L15.3401 42.1612ZM28.3647 42.1612L28.9436 43.0295L28.3647 42.1612ZM40.657 42.5016C39.5916 43.0776 39.9276 46.3001 41.2533 45.5835C42.3187 45.0075 41.9826 41.7849 40.657 42.5016ZM43.8012 42.3543L43.8978 42.547L43.8012 42.3543Z"/>
</mask>
<path d="M162.952 41.8718L163.242 42.1612L162.952 41.8718ZM15.3401 42.1612L15.6295 42.4506L15.3401 42.1612ZM28.3647 42.1612L28.9436 43.0295L28.3647 42.1612ZM40.657 42.5016C39.5916 43.0776 39.9276 46.3001 41.2533 45.5835C42.3187 45.0075 41.9826 41.7849 40.657 42.5016ZM43.8012 42.3543L43.8978 42.547L43.8012 42.3543Z" fill="#E8DEEF" stroke="black" stroke-width="2" mask="url(#path-23-inside-21_48_19)"/>
<mask id="path-24-inside-22_48_19" fill="white">
<path d="M14.7612 42.4506L15.0507 42.7401L14.7612 42.4506Z"/>
</mask>
<path d="M14.7612 42.4506L15.0507 42.7401L14.7612 42.4506Z" fill="#E8DEEF" stroke="black" stroke-width="2" mask="url(#path-24-inside-22_48_19)"/>
<mask id="path-25-inside-23_48_19" fill="white">
<path d="M46.0203 42.4506V42.7401L47.178 43.0295V42.7401L46.0203 42.4506Z"/>
</mask>
<path d="M46.0203 42.4506V42.7401L47.178 43.0295V42.7401L46.0203 42.4506Z" fill="#E8DEEF" stroke="black" stroke-width="2" mask="url(#path-25-inside-23_48_19)"/>
<mask id="path-26-inside-24_48_19" fill="white">
<path d="M14.4718 42.7401L14.7612 43.0295L14.4718 42.7401ZM32.7062 42.7401V47.9499H32.9956L32.7062 42.7401ZM43.9942 42.7401L44.2836 43.0295L43.9942 42.7401Z"/>
</mask>
<path d="M14.4718 42.7401L14.7612 43.0295L14.4718 42.7401ZM32.7062 42.7401V47.9499H32.9956L32.7062 42.7401ZM43.9942 42.7401L44.2836 43.0295L43.9942 42.7401Z" fill="#E8DEEF" stroke="black" stroke-width="2" mask="url(#path-26-inside-24_48_19)"/>
<mask id="path-27-inside-25_48_19" fill="white">
<path d="M163.821 42.7401L164.11 43.0295L163.821 42.7401ZM14.7612 43.0295V45.6345H15.0507L14.7612 43.0295ZM21.7077 43.0295L21.9971 43.319L21.7077 43.0295ZM28.9436 43.0295L29.5224 44.4767H29.8119L28.9436 43.0295ZM44.2837 43.0295L44.5731 43.319L44.2837 43.0295ZM47.178 43.0295L47.4675 43.319L47.178 43.0295ZM149.928 43.0295L150.217 43.319L149.928 43.0295Z"/>
</mask>
<path d="M163.821 42.7401L164.11 43.0295L163.821 42.7401ZM14.7612 43.0295V45.6345H15.0507L14.7612 43.0295ZM21.7077 43.0295L21.9971 43.319L21.7077 43.0295ZM28.9436 43.0295L29.5224 44.4767H29.8119L28.9436 43.0295ZM44.2837 43.0295L44.5731 43.319L44.2837 43.0295ZM47.178 43.0295L47.4675 43.319L47.178 43.0295ZM149.928 43.0295L150.217 43.319L149.928 43.0295Z" fill="#E8DEEF" stroke="black" stroke-width="2" mask="url(#path-27-inside-25_48_19)"/>
<mask id="path-28-inside-26_48_19" fill="white">
<path d="M17.945 43.319V46.2133H18.2344L17.945 43.319ZM25.4703 43.319V45.6345H25.7598L25.4703 43.319ZM37.9161 43.319V44.4767H38.2055L37.9161 43.319ZM44.7661 43.4153L44.9589 43.512L44.7661 43.4153ZM47.5638 43.512L47.6605 43.7048L47.5638 43.512ZM80.7525 43.319L81.042 43.6084L80.7525 43.319Z"/>
</mask>
<path d="M17.945 43.319V46.2133H18.2344L17.945 43.319ZM25.4703 43.319V45.6345H25.7598L25.4703 43.319ZM37.9161 43.319V44.4767H38.2055L37.9161 43.319ZM44.7661 43.4153L44.9589 43.512L44.7661 43.4153ZM47.5638 43.512L47.6605 43.7048L47.5638 43.512ZM80.7525 43.319L81.042 43.6084L80.7525 43.319Z" fill="#E8DEEF" stroke="black" stroke-width="2" mask="url(#path-28-inside-26_48_19)"/>
<mask id="path-29-inside-27_48_19" fill="white">
<path d="M12.4457 43.6084V45.0556H12.7352L12.4457 43.6084ZM21.4182 43.6084L21.7077 43.8978L21.4182 43.6084ZM27.8823 43.8015L27.9788 43.9942L27.8823 43.8015ZM45.152 43.6084L45.4414 43.8978L45.152 43.6084ZM79.8842 43.6084L80.1737 43.8978L79.8842 43.6084Z"/>
</mask>
<path d="M12.4457 43.6084V45.0556H12.7352L12.4457 43.6084ZM21.4182 43.6084L21.7077 43.8978L21.4182 43.6084ZM27.8823 43.8015L27.9788 43.9942L27.8823 43.8015ZM45.152 43.6084L45.4414 43.8978L45.152 43.6084ZM79.8842 43.6084L80.1737 43.8978L79.8842 43.6084Z" fill="#E8DEEF" stroke="black" stroke-width="2" mask="url(#path-29-inside-27_48_19)"/>
<mask id="path-30-inside-28_48_19" fill="white">
<path d="M21.2253 44.0909L21.3217 44.2836L21.2253 44.0909ZM42.2576 43.8978V46.2133H42.547L42.2576 43.8978ZM45.4414 43.8978V45.0556H45.7308L45.4414 43.8978ZM47.7569 43.8978L47.4674 46.2133H47.7569V43.8978Z"/>
</mask>
<path d="M21.2253 44.0909L21.3217 44.2836L21.2253 44.0909ZM42.2576 43.8978V46.2133H42.547L42.2576 43.8978ZM45.4414 43.8978V45.0556H45.7308L45.4414 43.8978ZM47.7569 43.8978L47.4674 46.2133H47.7569V43.8978Z" fill="#E8DEEF" stroke="black" stroke-width="2" mask="url(#path-30-inside-28_48_19)"/>
<mask id="path-31-inside-29_48_19" fill="white">
<path d="M55.2822 43.8978L55.5716 44.1873L55.2822 43.8978ZM79.209 43.9942L79.4017 44.0909L79.209 43.9942Z"/>
</mask>
<path d="M55.2822 43.8978L55.5716 44.1873L55.2822 43.8978ZM79.209 43.9942L79.4017 44.0909L79.209 43.9942Z" fill="#A9A8DB" stroke="black" stroke-width="2" mask="url(#path-31-inside-29_48_19)"/>
<mask id="path-32-inside-30_48_19" fill="white">
<path d="M28.0753 44.1873L28.3647 44.4767L28.0753 44.1873Z"/>
</mask>
<path d="M28.0753 44.1873L28.3647 44.4767L28.0753 44.1873Z" fill="#E8DEEF" stroke="black" stroke-width="2" mask="url(#path-32-inside-30_48_19)"/>
<mask id="path-33-inside-31_48_19" fill="white">
<path d="M54.9928 44.1873L55.2822 44.4767L54.9928 44.1873Z"/>
</mask>
<path d="M54.9928 44.1873L55.2822 44.4767L54.9928 44.1873Z" fill="#A9A8DB" stroke="black" stroke-width="2" mask="url(#path-33-inside-31_48_19)"/>
<mask id="path-34-inside-32_48_19" fill="white">
<path d="M20.2605 44.4767L20.8394 45.6344L20.2605 44.4767ZM20.9358 44.6697L21.0323 44.8625L20.9358 44.6697ZM28.4612 44.6697L28.5577 44.8625L28.4612 44.6697ZM29.9083 44.6697L30.0048 44.8625L29.9083 44.6697ZM77.5688 44.4767L77.8582 44.7661L77.5688 44.4767Z"/>
</mask>
<path d="M20.2605 44.4767L20.8394 45.6344L20.2605 44.4767ZM20.9358 44.6697L21.0323 44.8625L20.9358 44.6697ZM28.4612 44.6697L28.5577 44.8625L28.4612 44.6697ZM29.9083 44.6697L30.0048 44.8625L29.9083 44.6697ZM77.5688 44.4767L77.8582 44.7661L77.5688 44.4767Z" fill="#E8DEEF" stroke="black" stroke-width="2" mask="url(#path-34-inside-32_48_19)"/>
<mask id="path-35-inside-33_48_19" fill="white">
<path d="M22.0936 44.9592L22.1901 45.1519L22.0936 44.9592ZM27.4964 44.7661V48.5288H27.7858L27.4964 44.7661ZM43.4153 44.7661V45.345L43.9942 44.7661H43.4153Z"/>
</mask>
<path d="M22.0936 44.9592L22.1901 45.1519L22.0936 44.9592ZM27.4964 44.7661V48.5288H27.7858L27.4964 44.7661ZM43.4153 44.7661V45.345L43.9942 44.7661H43.4153Z" fill="#E8DEEF" stroke="black" stroke-width="2" mask="url(#path-35-inside-33_48_19)"/>
<mask id="path-36-inside-34_48_19" fill="white">
<path d="M28.6541 45.0555L28.9435 45.345L28.6541 45.0555ZM30.1013 45.0555L30.3907 45.345L30.1013 45.0555ZM38.3019 45.2486L38.3985 45.4413L38.3019 45.2486ZM44.1873 45.1519L44.38 45.2486L44.1873 45.1519ZM45.0556 45.1519L45.2483 45.2486L45.0556 45.1519ZM76.7004 45.0555L76.9899 45.345L76.7004 45.0555Z"/>
</mask>
<path d="M28.6541 45.0555L28.9435 45.345L28.6541 45.0555ZM30.1013 45.0555L30.3907 45.345L30.1013 45.0555ZM38.3019 45.2486L38.3985 45.4413L38.3019 45.2486ZM44.1873 45.1519L44.38 45.2486L44.1873 45.1519ZM45.0556 45.1519L45.2483 45.2486L45.0556 45.1519ZM76.7004 45.0555L76.9899 45.345L76.7004 45.0555Z" fill="#E8DEEF" stroke="black" stroke-width="2" mask="url(#path-36-inside-34_48_19)"/>
<mask id="path-37-inside-35_48_19" fill="white">
<path d="M21.7077 45.345L21.9971 45.6344L21.7077 45.345ZM22.2865 45.345V47.0816H22.576L22.2865 45.345ZM29.04 45.538L29.1365 45.7308L29.04 45.538ZM30.4872 45.538L30.5837 45.7308L30.4872 45.538ZM43.8012 45.538L43.8978 45.7308L43.8012 45.538ZM44.5731 45.345L44.8625 45.6344L44.5731 45.345Z"/>
</mask>
<path d="M21.7077 45.345L21.9971 45.6344L21.7077 45.345ZM22.2865 45.345V47.0816H22.576L22.2865 45.345ZM29.04 45.538L29.1365 45.7308L29.04 45.538ZM30.4872 45.538L30.5837 45.7308L30.4872 45.538ZM43.8012 45.538L43.8978 45.7308L43.8012 45.538ZM44.5731 45.345L44.8625 45.6344L44.5731 45.345Z" fill="#E8DEEF" stroke="black" stroke-width="2" mask="url(#path-37-inside-35_48_19)"/>
<mask id="path-38-inside-36_48_19" fill="white">
<path d="M14.4718 45.6345L14.1823 47.3711H14.4718V45.6345ZM21.4182 45.6345L21.7077 45.9239L21.4182 45.6345ZM34.7323 45.6345V46.7922H35.0217L34.7323 45.6345ZM38.4949 45.6345L38.7844 45.9239L38.4949 45.6345ZM75.8321 45.6345L76.1216 45.9239L75.8321 45.6345Z"/>
</mask>
<path d="M14.4718 45.6345L14.1823 47.3711H14.4718V45.6345ZM21.4182 45.6345L21.7077 45.9239L21.4182 45.6345ZM34.7323 45.6345V46.7922H35.0217L34.7323 45.6345ZM38.4949 45.6345L38.7844 45.9239L38.4949 45.6345ZM75.8321 45.6345L76.1216 45.9239L75.8321 45.6345Z" fill="#E8DEEF" stroke="black" stroke-width="2" mask="url(#path-38-inside-36_48_19)"/>
<mask id="path-39-inside-37_48_19" fill="white">
<path d="M164.11 45.6345L164.399 45.9239L164.11 45.6345ZM12.4457 45.9239V47.6605H12.7352L12.4457 45.9239ZM21.1288 45.9239L21.4182 46.2133L21.1288 45.9239ZM29.233 45.9239L29.5224 46.2133L29.233 45.9239ZM30.6802 45.9239L30.9696 46.2133L30.6802 45.9239ZM43.9942 45.9239L44.2837 46.2133L43.9942 45.9239ZM75.2533 45.9239L74.9638 46.5028L75.2533 45.9239Z"/>
</mask>
<path d="M164.11 45.6345L164.399 45.9239L164.11 45.6345ZM12.4457 45.9239V47.6605H12.7352L12.4457 45.9239ZM21.1288 45.9239L21.4182 46.2133L21.1288 45.9239ZM29.233 45.9239L29.5224 46.2133L29.233 45.9239ZM30.6802 45.9239L30.9696 46.2133L30.6802 45.9239ZM43.9942 45.9239L44.2837 46.2133L43.9942 45.9239ZM75.2533 45.9239L74.9638 46.5028L75.2533 45.9239Z" fill="#E8DEEF" stroke="black" stroke-width="2" mask="url(#path-39-inside-37_48_19)"/>
<mask id="path-40-inside-38_48_19" fill="white">
<path d="M20.8394 46.2133L21.1288 46.5028L20.8394 46.2133ZM25.7598 46.2133V48.2394H26.0492L25.7598 46.2133ZM29.6189 46.4064L29.7154 46.5991L29.6189 46.4064ZM30.9696 46.2133L31.259 46.5028L30.9696 46.2133ZM38.7844 46.2133L39.0738 46.5028L38.7844 46.2133ZM42.0645 46.4064L42.1612 46.5991L42.0645 46.4064ZM44.4767 46.3097L44.6695 46.4064L44.4767 46.3097ZM47.178 46.2133L47.4674 46.5028L47.178 46.2133Z"/>
</mask>
<path d="M20.8394 46.2133L21.1288 46.5028L20.8394 46.2133ZM25.7598 46.2133V48.2394H26.0492L25.7598 46.2133ZM29.6189 46.4064L29.7154 46.5991L29.6189 46.4064ZM30.9696 46.2133L31.259 46.5028L30.9696 46.2133ZM38.7844 46.2133L39.0738 46.5028L38.7844 46.2133ZM42.0645 46.4064L42.1612 46.5991L42.0645 46.4064ZM44.4767 46.3097L44.6695 46.4064L44.4767 46.3097ZM47.178 46.2133L47.4674 46.5028L47.178 46.2133Z" fill="#E8DEEF" stroke="black" stroke-width="2" mask="url(#path-40-inside-38_48_19)"/>
<mask id="path-41-inside-39_48_19" fill="white">
<path d="M39.0738 46.5027L39.3633 46.7922L39.0738 46.5027ZM44.8625 46.5027L45.152 46.7922L44.8625 46.5027ZM46.8886 46.5027L47.178 46.7922L46.8886 46.5027Z"/>
</mask>
<path d="M39.0738 46.5027L39.3633 46.7922L39.0738 46.5027ZM44.8625 46.5027L45.152 46.7922L44.8625 46.5027ZM46.8886 46.5027L47.178 46.7922L46.8886 46.5027Z" fill="#E8DEEF" stroke="black" stroke-width="2" mask="url(#path-41-inside-39_48_19)"/>
<mask id="path-42-inside-40_48_19" fill="white">
<path d="M20.2605 46.7922L20.5499 47.0816L20.2605 46.7922ZM24.0232 46.7922L24.3126 47.0816L24.0232 46.7922ZM29.8119 46.7922L30.1013 47.0816L29.8119 46.7922ZM31.2591 46.7922V47.9499H31.5485L31.2591 46.7922ZM34.5392 46.9852L34.6359 47.178L34.5392 46.9852ZM39.6527 46.7922L39.9421 47.0816L39.6527 46.7922ZM41.6787 46.7922L41.9682 47.0816L41.6787 46.7922ZM45.7308 46.7922V47.0816H46.5991L45.7308 46.7922ZM74.0955 46.7922L74.385 47.0816L74.0955 46.7922Z"/>
</mask>
<path d="M20.2605 46.7922L20.5499 47.0816L20.2605 46.7922ZM24.0232 46.7922L24.3126 47.0816L24.0232 46.7922ZM29.8119 46.7922L30.1013 47.0816L29.8119 46.7922ZM31.2591 46.7922V47.9499H31.5485L31.2591 46.7922ZM34.5392 46.9852L34.6359 47.178L34.5392 46.9852ZM39.6527 46.7922L39.9421 47.0816L39.6527 46.7922ZM41.6787 46.7922L41.9682 47.0816L41.6787 46.7922ZM45.7308 46.7922V47.0816H46.5991L45.7308 46.7922ZM74.0955 46.7922L74.385 47.0816L74.0955 46.7922Z" fill="#E8DEEF" stroke="black" stroke-width="2" mask="url(#path-42-inside-40_48_19)"/>
<mask id="path-43-inside-41_48_19" fill="white">
<path d="M13.8929 47.371L14.1823 47.6605L13.8929 47.371ZM19.3922 47.371L19.6816 47.6605L19.3922 47.371ZM22.8654 47.371V47.6605H23.7337L22.8654 47.371ZM30.3907 47.371L30.6802 47.6605L30.3907 47.371ZM34.1534 47.371L34.4428 47.6605L34.1534 47.371ZM73.5166 47.371L73.8061 47.6605L73.5166 47.371Z"/>
</mask>
<path d="M13.8929 47.371L14.1823 47.6605L13.8929 47.371ZM19.3922 47.371L19.6816 47.6605L19.3922 47.371ZM22.8654 47.371V47.6605H23.7337L22.8654 47.371ZM30.3907 47.371L30.6802 47.6605L30.3907 47.371ZM34.1534 47.371L34.4428 47.6605L34.1534 47.371ZM73.5166 47.371L73.8061 47.6605L73.5166 47.371Z" fill="#E8DEEF" stroke="black" stroke-width="2" mask="url(#path-43-inside-41_48_19)"/>
<mask id="path-44-inside-42_48_19" fill="white">
<path d="M163.242 47.371L163.531 47.6605L163.242 47.371ZM12.7352 47.6605V47.9499H13.8929L12.7352 47.6605ZM30.6802 47.6605L30.9696 47.9499L30.6802 47.6605ZM33.4781 47.7568L33.6709 47.8535L33.4781 47.7568Z"/>
</mask>
<path d="M163.242 47.371L163.531 47.6605L163.242 47.371ZM12.7352 47.6605V47.9499H13.8929L12.7352 47.6605ZM30.6802 47.6605L30.9696 47.9499L30.6802 47.6605ZM33.4781 47.7568L33.6709 47.8535L33.4781 47.7568Z" fill="#E8DEEF" stroke="black" stroke-width="2" mask="url(#path-44-inside-42_48_19)"/>
<mask id="path-45-inside-43_48_19" fill="white">
<path d="M30.9696 47.9499L31.259 48.2393L30.9696 47.9499Z"/>
</mask>
<path d="M30.9696 47.9499L31.259 48.2393L30.9696 47.9499Z" fill="#E8DEEF" stroke="black" stroke-width="2" mask="url(#path-45-inside-43_48_19)"/>
<mask id="path-46-inside-44_48_19" fill="white">
<path d="M162.952 47.9499L163.242 48.2393L162.952 47.9499ZM26.0492 48.2393L26.3386 48.5288L26.0492 48.2393ZM72.3589 48.2393L72.0695 48.8182L72.3589 48.2393Z"/>
</mask>
<path d="M162.952 47.9499L163.242 48.2393L162.952 47.9499ZM26.0492 48.2393L26.3386 48.5288L26.0492 48.2393ZM72.3589 48.2393L72.0695 48.8182L72.3589 48.2393Z" fill="#E8DEEF" stroke="black" stroke-width="2" mask="url(#path-46-inside-44_48_19)"/>
<mask id="path-47-inside-45_48_19" fill="white">
<path d="M26.5316 48.6252L26.7246 48.7219L26.5316 48.6252ZM27.207 48.5288L27.4964 48.8182L27.207 48.5288Z"/>
</mask>
<path d="M26.5316 48.6252L26.7246 48.7219L26.5316 48.6252ZM27.207 48.5288L27.4964 48.8182L27.207 48.5288Z" fill="#E8DEEF" stroke="black" stroke-width="2" mask="url(#path-47-inside-45_48_19)"/>
<mask id="path-48-inside-46_48_19" fill="white">
<path d="M153.69 48.5288L153.98 48.8182L153.69 48.5288ZM158.032 48.5288L157.742 49.1077L158.032 48.5288ZM162.663 48.5288L162.952 48.8182L162.663 48.5288ZM26.9175 48.8182L27.2069 49.1077L26.9175 48.8182ZM71.78 48.8182L70.3329 50.5549L71.78 48.8182Z"/>
</mask>
<path d="M153.69 48.5288L153.98 48.8182L153.69 48.5288ZM158.032 48.5288L157.742 49.1077L158.032 48.5288ZM162.663 48.5288L162.952 48.8182L162.663 48.5288ZM26.9175 48.8182L27.2069 49.1077L26.9175 48.8182ZM71.78 48.8182L70.3329 50.5549L71.78 48.8182Z" fill="#E8DEEF" stroke="black" stroke-width="2" mask="url(#path-48-inside-46_48_19)"/>
<mask id="path-49-inside-47_48_19" fill="white">
<path d="M110.564 42.4506V43.0295L120.116 45.4061L133.43 47.9499C132.412 46.4906 129.577 46.3658 127.931 45.9542C124.086 44.993 120.217 44.1094 116.353 43.2179C114.492 42.7887 112.454 41.9308 110.564 42.4506ZM155.909 42.2576L156.102 42.3542L155.909 42.2576Z"/>
</mask>
<path d="M110.564 42.4506V43.0295L120.116 45.4061L133.43 47.9499C132.412 46.4906 129.577 46.3658 127.931 45.9542C124.086 44.993 120.217 44.1094 116.353 43.2179C114.492 42.7887 112.454 41.9308 110.564 42.4506ZM155.909 42.2576L156.102 42.3542L155.909 42.2576Z" fill="#E8DEEF" stroke="black" stroke-width="2" mask="url(#path-49-inside-47_48_19)"/>
</svg>
