<svg width="50" height="53" viewBox="0 0 50 53" fill="none" xmlns="http://www.w3.org/2000/svg">
<path fill-rule="evenodd" clip-rule="evenodd" d="M24.5934 0.0761682C24.8549 -0.0253894 25.1451 -0.0253894 25.4066 0.0761682L49.2831 9.34583C49.7152 9.51362 50 9.92964 50 10.3933V51.1236C50 51.7441 49.4969 52.2472 48.8764 52.2472H1.1236C0.503051 52.2472 0 51.7441 0 51.1236V10.3933C0 9.92964 0.284757 9.51362 0.716947 9.34583L24.5934 0.0761682ZM2.24719 11.1623V50H47.7528V11.1623L25 2.3289L2.24719 11.1623Z" fill="#4120A9"/>
<path fill-rule="evenodd" clip-rule="evenodd" d="M20.2248 51.9663C20.8453 51.9663 21.3484 51.4633 21.3484 50.8427V41.2922H28.6518V50.8427C28.6518 51.4633 29.1548 51.9663 29.7754 51.9663C30.3959 51.9663 30.8989 51.4633 30.8989 50.8427V40.1686C30.8989 39.548 30.3959 39.045 29.7754 39.045H20.2248C19.6042 39.045 19.1012 39.548 19.1012 40.1686V50.8427C19.1012 51.4633 19.6042 51.9663 20.2248 51.9663Z" fill="#4120A9"/>
<path fill-rule="evenodd" clip-rule="evenodd" d="M25 21.3483C26.0859 21.3483 26.9663 20.468 26.9663 19.382C26.9663 18.296 26.0859 17.4157 25 17.4157C23.914 17.4157 23.0337 18.296 23.0337 19.382C23.0337 20.468 23.914 21.3483 25 21.3483ZM25 23.5955C27.327 23.5955 29.2135 21.709 29.2135 19.382C29.2135 17.055 27.327 15.1685 25 15.1685C22.6729 15.1685 20.7865 17.055 20.7865 19.382C20.7865 21.709 22.6729 23.5955 25 23.5955Z" fill="#4120A9"/>
</svg>
