<svg width="50" height="64" viewBox="0 0 50 64" fill="none" xmlns="http://www.w3.org/2000/svg">
<path fill-rule="evenodd" clip-rule="evenodd" d="M0 37.5C0 36.7733 0.589099 36.1842 1.31579 36.1842H13.1579C13.3719 36.1842 13.5828 36.2364 13.7721 36.3363L25 42.2622L36.2279 36.3363C36.4172 36.2364 36.6281 36.1842 36.8421 36.1842H48.6842C49.4109 36.1842 50 36.7733 50 37.5V62.171C50 62.8977 49.4109 63.4868 48.6842 63.4868H1.31579C0.589099 63.4868 0 62.8977 0 62.171V37.5ZM2.63158 38.8158V60.8553H47.3684V38.8158H37.168L25.6142 44.9137C25.2298 45.1165 24.7702 45.1165 24.3858 44.9137L12.832 38.8158H2.63158Z" fill="#4120A9"/>
<path fill-rule="evenodd" clip-rule="evenodd" d="M24.671 30.2632C32.3012 30.2632 38.4868 24.0776 38.4868 16.4474C38.4868 8.81712 32.3012 2.63158 24.671 2.63158C17.0407 2.63158 10.8552 8.81712 10.8552 16.4474C10.8552 24.0776 17.0407 30.2632 24.671 30.2632ZM24.671 32.8947C33.7546 32.8947 41.1183 25.531 41.1183 16.4474C41.1183 7.36374 33.7546 0 24.671 0C15.5873 0 8.2236 7.36374 8.2236 16.4474C8.2236 25.531 15.5873 32.8947 24.671 32.8947Z" fill="#4120A9"/>
</svg>
